<mxfile host="app.diagrams.net" agent="Mozilla/5.0 (Windows NT 10.0; Win64; x64) AppleWebKit/537.36 (KHTML, like Gecko) Chrome/129.0.0.0 Safari/537.36" version="24.7.17">
  <diagram id="C5RBs43oDa-KdzZeNtuy" name="Page-1">
    <mxGraphModel dx="1877" dy="607" grid="1" gridSize="10" guides="1" tooltips="1" connect="1" arrows="1" fold="1" page="1" pageScale="1" pageWidth="827" pageHeight="1169" math="0" shadow="0">
      <root>
        <mxCell id="WIyWlLk6GJQsqaUBKTNV-0" />
        <mxCell id="WIyWlLk6GJQsqaUBKTNV-1" parent="WIyWlLk6GJQsqaUBKTNV-0" />
        <mxCell id="PzG2n6Dxidd_WywgWjzG-7" value="" style="edgeStyle=none;curved=1;rounded=0;orthogonalLoop=1;jettySize=auto;html=1;fontSize=12;startSize=8;endSize=8;entryX=0.5;entryY=0;entryDx=0;entryDy=0;" parent="WIyWlLk6GJQsqaUBKTNV-1" source="PzG2n6Dxidd_WywgWjzG-0" target="PzG2n6Dxidd_WywgWjzG-1" edge="1">
          <mxGeometry relative="1" as="geometry" />
        </mxCell>
        <mxCell id="PzG2n6Dxidd_WywgWjzG-0" value="Start" style="strokeWidth=2;html=1;shape=mxgraph.flowchart.terminator;whiteSpace=wrap;" parent="WIyWlLk6GJQsqaUBKTNV-1" vertex="1">
          <mxGeometry x="215" y="80" width="130" height="80" as="geometry" />
        </mxCell>
        <mxCell id="PzG2n6Dxidd_WywgWjzG-1" value="WELCOME&lt;div&gt;MUSEUM OF ART&lt;/div&gt;" style="swimlane;fontStyle=0;childLayout=stackLayout;horizontal=1;startSize=26;fillColor=none;horizontalStack=0;resizeParent=1;resizeParentMax=0;resizeLast=0;collapsible=1;marginBottom=0;html=1;" parent="WIyWlLk6GJQsqaUBKTNV-1" vertex="1">
          <mxGeometry x="200" y="240" width="160" height="130" as="geometry" />
        </mxCell>
        <mxCell id="PzG2n6Dxidd_WywgWjzG-2" value="1. LOG IN" style="text;strokeColor=none;fillColor=none;align=left;verticalAlign=top;spacingLeft=4;spacingRight=4;overflow=hidden;rotatable=0;points=[[0,0.5],[1,0.5]];portConstraint=eastwest;whiteSpace=wrap;html=1;" parent="PzG2n6Dxidd_WywgWjzG-1" vertex="1">
          <mxGeometry y="26" width="160" height="34" as="geometry" />
        </mxCell>
        <mxCell id="PzG2n6Dxidd_WywgWjzG-3" value="2. REGISTRASI" style="text;strokeColor=none;fillColor=none;align=left;verticalAlign=top;spacingLeft=4;spacingRight=4;overflow=hidden;rotatable=0;points=[[0,0.5],[1,0.5]];portConstraint=eastwest;whiteSpace=wrap;html=1;" parent="PzG2n6Dxidd_WywgWjzG-1" vertex="1">
          <mxGeometry y="60" width="160" height="38" as="geometry" />
        </mxCell>
        <mxCell id="PzG2n6Dxidd_WywgWjzG-4" value="3. KELUAR" style="text;strokeColor=none;fillColor=none;align=left;verticalAlign=top;spacingLeft=4;spacingRight=4;overflow=hidden;rotatable=0;points=[[0,0.5],[1,0.5]];portConstraint=eastwest;whiteSpace=wrap;html=1;" parent="PzG2n6Dxidd_WywgWjzG-1" vertex="1">
          <mxGeometry y="98" width="160" height="32" as="geometry" />
        </mxCell>
        <mxCell id="PzG2n6Dxidd_WywgWjzG-8" value="" style="endArrow=classic;html=1;rounded=0;fontSize=12;startSize=8;endSize=8;curved=1;entryX=0;entryY=0;entryDx=0;entryDy=0;" parent="WIyWlLk6GJQsqaUBKTNV-1" edge="1">
          <mxGeometry width="50" height="50" relative="1" as="geometry">
            <mxPoint x="360" y="370" as="sourcePoint" />
            <mxPoint x="440" y="370" as="targetPoint" />
          </mxGeometry>
        </mxCell>
        <mxCell id="PzG2n6Dxidd_WywgWjzG-9" value="print" style="text;strokeColor=none;align=center;fillColor=none;html=1;verticalAlign=middle;whiteSpace=wrap;rounded=0;fontSize=16;" parent="WIyWlLk6GJQsqaUBKTNV-1" vertex="1">
          <mxGeometry x="190" y="210" width="60" height="30" as="geometry" />
        </mxCell>
        <mxCell id="PzG2n6Dxidd_WywgWjzG-10" value="Input 1,2, atau 3" style="strokeWidth=2;html=1;shape=mxgraph.flowchart.decision;whiteSpace=wrap;" parent="WIyWlLk6GJQsqaUBKTNV-1" vertex="1">
          <mxGeometry x="220" y="440" width="120" height="120" as="geometry" />
        </mxCell>
        <mxCell id="PzG2n6Dxidd_WywgWjzG-11" value="" style="endArrow=classic;html=1;rounded=0;fontSize=12;startSize=8;endSize=8;curved=1;exitX=0.499;exitY=1;exitDx=0;exitDy=0;exitPerimeter=0;entryX=0.5;entryY=0;entryDx=0;entryDy=0;entryPerimeter=0;" parent="WIyWlLk6GJQsqaUBKTNV-1" source="PzG2n6Dxidd_WywgWjzG-4" target="PzG2n6Dxidd_WywgWjzG-10" edge="1">
          <mxGeometry width="50" height="50" relative="1" as="geometry">
            <mxPoint x="250" y="430" as="sourcePoint" />
            <mxPoint x="300" y="380" as="targetPoint" />
          </mxGeometry>
        </mxCell>
        <mxCell id="PzG2n6Dxidd_WywgWjzG-12" value="Input 1&lt;div&gt;LOG IN&lt;/div&gt;" style="rounded=0;whiteSpace=wrap;html=1;" parent="WIyWlLk6GJQsqaUBKTNV-1" vertex="1">
          <mxGeometry x="-160" y="640" width="160" height="80" as="geometry" />
        </mxCell>
        <mxCell id="PzG2n6Dxidd_WywgWjzG-13" value="" style="edgeStyle=segmentEdgeStyle;endArrow=classic;html=1;curved=0;rounded=0;endSize=8;startSize=8;fontSize=12;exitX=0;exitY=0.5;exitDx=0;exitDy=0;exitPerimeter=0;entryX=0.5;entryY=0;entryDx=0;entryDy=0;" parent="WIyWlLk6GJQsqaUBKTNV-1" source="PzG2n6Dxidd_WywgWjzG-10" target="PzG2n6Dxidd_WywgWjzG-12" edge="1">
          <mxGeometry width="50" height="50" relative="1" as="geometry">
            <mxPoint x="110" y="530" as="sourcePoint" />
            <mxPoint x="-20" y="550" as="targetPoint" />
          </mxGeometry>
        </mxCell>
        <mxCell id="PzG2n6Dxidd_WywgWjzG-22" value="" style="edgeStyle=none;curved=1;rounded=0;orthogonalLoop=1;jettySize=auto;html=1;fontSize=12;startSize=8;endSize=8;" parent="WIyWlLk6GJQsqaUBKTNV-1" source="PzG2n6Dxidd_WywgWjzG-14" target="PzG2n6Dxidd_WywgWjzG-17" edge="1">
          <mxGeometry relative="1" as="geometry" />
        </mxCell>
        <mxCell id="PzG2n6Dxidd_WywgWjzG-14" value="Input nama dan password user" style="rounded=0;whiteSpace=wrap;html=1;" parent="WIyWlLk6GJQsqaUBKTNV-1" vertex="1">
          <mxGeometry x="200" y="800" width="160" height="80" as="geometry" />
        </mxCell>
        <mxCell id="PzG2n6Dxidd_WywgWjzG-21" value="" style="edgeStyle=none;curved=1;rounded=0;orthogonalLoop=1;jettySize=auto;html=1;fontSize=12;startSize=8;endSize=8;" parent="WIyWlLk6GJQsqaUBKTNV-1" source="PzG2n6Dxidd_WywgWjzG-15" target="PzG2n6Dxidd_WywgWjzG-14" edge="1">
          <mxGeometry relative="1" as="geometry" />
        </mxCell>
        <mxCell id="PzG2n6Dxidd_WywgWjzG-15" value="Input 2&lt;div&gt;REGISTRASI&lt;/div&gt;" style="rounded=0;whiteSpace=wrap;html=1;" parent="WIyWlLk6GJQsqaUBKTNV-1" vertex="1">
          <mxGeometry x="200" y="640" width="160" height="80" as="geometry" />
        </mxCell>
        <mxCell id="PzG2n6Dxidd_WywgWjzG-16" value="" style="endArrow=classic;html=1;rounded=0;fontSize=12;startSize=8;endSize=8;curved=1;exitX=0.5;exitY=1;exitDx=0;exitDy=0;exitPerimeter=0;" parent="WIyWlLk6GJQsqaUBKTNV-1" source="PzG2n6Dxidd_WywgWjzG-10" edge="1">
          <mxGeometry width="50" height="50" relative="1" as="geometry">
            <mxPoint x="150" y="630" as="sourcePoint" />
            <mxPoint x="280" y="640" as="targetPoint" />
          </mxGeometry>
        </mxCell>
        <mxCell id="PzG2n6Dxidd_WywgWjzG-17" value="print &quot;Registrasi Berhasil, Silahkan login kembali sebagai user" style="rounded=0;whiteSpace=wrap;html=1;" parent="WIyWlLk6GJQsqaUBKTNV-1" vertex="1">
          <mxGeometry x="200" y="960" width="160" height="80" as="geometry" />
        </mxCell>
        <mxCell id="PzG2n6Dxidd_WywgWjzG-18" value="" style="endArrow=classic;html=1;rounded=0;fontSize=12;startSize=8;endSize=8;curved=1;" parent="WIyWlLk6GJQsqaUBKTNV-1" edge="1">
          <mxGeometry width="50" height="50" relative="1" as="geometry">
            <mxPoint x="360" y="1040" as="sourcePoint" />
            <mxPoint x="400" y="1040" as="targetPoint" />
          </mxGeometry>
        </mxCell>
        <mxCell id="PzG2n6Dxidd_WywgWjzG-20" value="" style="endArrow=classic;html=1;rounded=0;fontSize=12;startSize=8;endSize=8;curved=1;entryX=0;entryY=0;entryDx=0;entryDy=0;" parent="WIyWlLk6GJQsqaUBKTNV-1" edge="1">
          <mxGeometry width="50" height="50" relative="1" as="geometry">
            <mxPoint x="160" y="800" as="sourcePoint" />
            <mxPoint x="200" y="800" as="targetPoint" />
          </mxGeometry>
        </mxCell>
        <mxCell id="PzG2n6Dxidd_WywgWjzG-23" value="" style="edgeStyle=segmentEdgeStyle;endArrow=classic;html=1;curved=0;rounded=0;endSize=8;startSize=8;fontSize=12;exitX=1;exitY=0.5;exitDx=0;exitDy=0;exitPerimeter=0;entryX=0.5;entryY=0;entryDx=0;entryDy=0;" parent="WIyWlLk6GJQsqaUBKTNV-1" source="PzG2n6Dxidd_WywgWjzG-10" target="PzG2n6Dxidd_WywgWjzG-25" edge="1">
          <mxGeometry width="50" height="50" relative="1" as="geometry">
            <mxPoint x="150" y="530" as="sourcePoint" />
            <mxPoint x="640.800048828125" y="640" as="targetPoint" />
          </mxGeometry>
        </mxCell>
        <mxCell id="PzG2n6Dxidd_WywgWjzG-25" value="Input 3&lt;div&gt;KELUAR&lt;/div&gt;" style="rounded=0;whiteSpace=wrap;html=1;" parent="WIyWlLk6GJQsqaUBKTNV-1" vertex="1">
          <mxGeometry x="560" y="640" width="160" height="80" as="geometry" />
        </mxCell>
        <mxCell id="PzG2n6Dxidd_WywgWjzG-26" value="" style="endArrow=classic;html=1;rounded=0;fontSize=12;startSize=8;endSize=8;curved=1;entryX=0;entryY=0;entryDx=0;entryDy=0;" parent="WIyWlLk6GJQsqaUBKTNV-1" edge="1">
          <mxGeometry width="50" height="50" relative="1" as="geometry">
            <mxPoint x="520" y="640" as="sourcePoint" />
            <mxPoint x="560" y="640" as="targetPoint" />
          </mxGeometry>
        </mxCell>
        <mxCell id="PzG2n6Dxidd_WywgWjzG-27" value="" style="endArrow=classic;html=1;rounded=0;fontSize=12;startSize=8;endSize=8;curved=1;entryX=0;entryY=0;entryDx=0;entryDy=0;" parent="WIyWlLk6GJQsqaUBKTNV-1" edge="1">
          <mxGeometry width="50" height="50" relative="1" as="geometry">
            <mxPoint x="-200" y="639" as="sourcePoint" />
            <mxPoint x="-160" y="639" as="targetPoint" />
          </mxGeometry>
        </mxCell>
        <mxCell id="PzG2n6Dxidd_WywgWjzG-28" value="" style="endArrow=classic;html=1;rounded=0;fontSize=12;startSize=8;endSize=8;curved=1;entryX=0;entryY=0;entryDx=0;entryDy=0;" parent="WIyWlLk6GJQsqaUBKTNV-1" edge="1">
          <mxGeometry width="50" height="50" relative="1" as="geometry">
            <mxPoint x="160" y="640" as="sourcePoint" />
            <mxPoint x="200" y="640" as="targetPoint" />
          </mxGeometry>
        </mxCell>
        <mxCell id="PzG2n6Dxidd_WywgWjzG-35" value="" style="endArrow=none;html=1;rounded=0;fontSize=12;startSize=8;endSize=8;curved=1;exitX=0.5;exitY=1;exitDx=0;exitDy=0;" parent="WIyWlLk6GJQsqaUBKTNV-1" source="PzG2n6Dxidd_WywgWjzG-17" edge="1">
          <mxGeometry width="50" height="50" relative="1" as="geometry">
            <mxPoint x="130" y="930" as="sourcePoint" />
            <mxPoint x="280" y="1080" as="targetPoint" />
          </mxGeometry>
        </mxCell>
        <mxCell id="PzG2n6Dxidd_WywgWjzG-37" value="" style="edgeStyle=elbowEdgeStyle;elbow=horizontal;endArrow=classic;html=1;curved=0;rounded=0;endSize=8;startSize=8;fontSize=12;entryX=0.005;entryY=0.074;entryDx=0;entryDy=0;entryPerimeter=0;" parent="WIyWlLk6GJQsqaUBKTNV-1" target="PzG2n6Dxidd_WywgWjzG-3" edge="1">
          <mxGeometry width="50" height="50" relative="1" as="geometry">
            <mxPoint x="80" y="1080" as="sourcePoint" />
            <mxPoint x="180" y="780" as="targetPoint" />
            <Array as="points">
              <mxPoint x="80" y="900" />
            </Array>
          </mxGeometry>
        </mxCell>
        <mxCell id="PzG2n6Dxidd_WywgWjzG-38" value="" style="endArrow=none;html=1;rounded=0;fontSize=12;startSize=8;endSize=8;curved=1;" parent="WIyWlLk6GJQsqaUBKTNV-1" edge="1">
          <mxGeometry width="50" height="50" relative="1" as="geometry">
            <mxPoint x="280" y="1080" as="sourcePoint" />
            <mxPoint x="80" y="1080" as="targetPoint" />
          </mxGeometry>
        </mxCell>
        <mxCell id="PzG2n6Dxidd_WywgWjzG-40" value="" style="edgeStyle=elbowEdgeStyle;elbow=vertical;endArrow=classic;html=1;curved=0;rounded=0;endSize=8;startSize=8;fontSize=12;exitX=0.5;exitY=1;exitDx=0;exitDy=0;" parent="WIyWlLk6GJQsqaUBKTNV-1" source="PzG2n6Dxidd_WywgWjzG-12" edge="1">
          <mxGeometry width="50" height="50" relative="1" as="geometry">
            <mxPoint x="40" y="960" as="sourcePoint" />
            <mxPoint x="280" y="1200" as="targetPoint" />
            <Array as="points">
              <mxPoint x="30" y="1120" />
            </Array>
          </mxGeometry>
        </mxCell>
        <mxCell id="PzG2n6Dxidd_WywgWjzG-42" value="WELCOME&lt;div&gt;MUSEUM OF ART&lt;/div&gt;" style="swimlane;fontStyle=0;childLayout=stackLayout;horizontal=1;startSize=26;fillColor=none;horizontalStack=0;resizeParent=1;resizeParentMax=0;resizeLast=0;collapsible=1;marginBottom=0;html=1;" parent="WIyWlLk6GJQsqaUBKTNV-1" vertex="1">
          <mxGeometry x="200" y="1200" width="160" height="130" as="geometry" />
        </mxCell>
        <mxCell id="PzG2n6Dxidd_WywgWjzG-43" value="1. ADMIN" style="text;strokeColor=none;fillColor=none;align=left;verticalAlign=top;spacingLeft=4;spacingRight=4;overflow=hidden;rotatable=0;points=[[0,0.5],[1,0.5]];portConstraint=eastwest;whiteSpace=wrap;html=1;" parent="PzG2n6Dxidd_WywgWjzG-42" vertex="1">
          <mxGeometry y="26" width="160" height="34" as="geometry" />
        </mxCell>
        <mxCell id="PzG2n6Dxidd_WywgWjzG-44" value="2. USER" style="text;strokeColor=none;fillColor=none;align=left;verticalAlign=top;spacingLeft=4;spacingRight=4;overflow=hidden;rotatable=0;points=[[0,0.5],[1,0.5]];portConstraint=eastwest;whiteSpace=wrap;html=1;" parent="PzG2n6Dxidd_WywgWjzG-42" vertex="1">
          <mxGeometry y="60" width="160" height="38" as="geometry" />
        </mxCell>
        <mxCell id="PzG2n6Dxidd_WywgWjzG-45" value="3. KEMBALI" style="text;strokeColor=none;fillColor=none;align=left;verticalAlign=top;spacingLeft=4;spacingRight=4;overflow=hidden;rotatable=0;points=[[0,0.5],[1,0.5]];portConstraint=eastwest;whiteSpace=wrap;html=1;" parent="PzG2n6Dxidd_WywgWjzG-42" vertex="1">
          <mxGeometry y="98" width="160" height="32" as="geometry" />
        </mxCell>
        <mxCell id="PzG2n6Dxidd_WywgWjzG-47" value="" style="endArrow=classic;html=1;rounded=0;fontSize=12;startSize=8;endSize=8;curved=1;entryX=0;entryY=0;entryDx=0;entryDy=0;" parent="WIyWlLk6GJQsqaUBKTNV-1" edge="1">
          <mxGeometry width="50" height="50" relative="1" as="geometry">
            <mxPoint x="360" y="1330" as="sourcePoint" />
            <mxPoint x="440" y="1330" as="targetPoint" />
          </mxGeometry>
        </mxCell>
        <mxCell id="PzG2n6Dxidd_WywgWjzG-80" value="" style="edgeStyle=none;curved=1;rounded=0;orthogonalLoop=1;jettySize=auto;html=1;fontSize=12;startSize=8;endSize=8;" parent="WIyWlLk6GJQsqaUBKTNV-1" source="PzG2n6Dxidd_WywgWjzG-48" target="PzG2n6Dxidd_WywgWjzG-63" edge="1">
          <mxGeometry relative="1" as="geometry" />
        </mxCell>
        <mxCell id="PzG2n6Dxidd_WywgWjzG-48" value="Input 1,2, atau 3" style="strokeWidth=2;html=1;shape=mxgraph.flowchart.decision;whiteSpace=wrap;" parent="WIyWlLk6GJQsqaUBKTNV-1" vertex="1">
          <mxGeometry x="220" y="1400" width="120" height="120" as="geometry" />
        </mxCell>
        <mxCell id="PzG2n6Dxidd_WywgWjzG-49" value="" style="endArrow=classic;html=1;rounded=0;fontSize=12;startSize=8;endSize=8;curved=1;exitX=0.48;exitY=1.025;exitDx=0;exitDy=0;exitPerimeter=0;entryX=0.5;entryY=0;entryDx=0;entryDy=0;entryPerimeter=0;" parent="WIyWlLk6GJQsqaUBKTNV-1" source="PzG2n6Dxidd_WywgWjzG-45" target="PzG2n6Dxidd_WywgWjzG-48" edge="1">
          <mxGeometry width="50" height="50" relative="1" as="geometry">
            <mxPoint x="170" y="1260" as="sourcePoint" />
            <mxPoint x="220" y="1210" as="targetPoint" />
          </mxGeometry>
        </mxCell>
        <mxCell id="PzG2n6Dxidd_WywgWjzG-50" value="" style="edgeStyle=segmentEdgeStyle;endArrow=classic;html=1;curved=0;rounded=0;endSize=8;startSize=8;fontSize=12;exitX=0;exitY=0.5;exitDx=0;exitDy=0;exitPerimeter=0;" parent="WIyWlLk6GJQsqaUBKTNV-1" source="PzG2n6Dxidd_WywgWjzG-48" edge="1">
          <mxGeometry width="50" height="50" relative="1" as="geometry">
            <mxPoint x="10" y="1460" as="sourcePoint" />
            <mxPoint x="-80" y="1600" as="targetPoint" />
          </mxGeometry>
        </mxCell>
        <mxCell id="PzG2n6Dxidd_WywgWjzG-58" value="" style="endArrow=classic;html=1;rounded=0;fontSize=12;startSize=8;endSize=8;curved=1;" parent="WIyWlLk6GJQsqaUBKTNV-1" edge="1">
          <mxGeometry width="50" height="50" relative="1" as="geometry">
            <mxPoint x="-200" y="1840" as="sourcePoint" />
            <mxPoint x="-280" y="1840" as="targetPoint" />
          </mxGeometry>
        </mxCell>
        <mxCell id="PzG2n6Dxidd_WywgWjzG-59" value="Jika salah 3 kali, maka tidak dapat melanjutkan program" style="rounded=0;whiteSpace=wrap;html=1;" parent="WIyWlLk6GJQsqaUBKTNV-1" vertex="1">
          <mxGeometry x="-440" y="1800" width="160" height="80" as="geometry" />
        </mxCell>
        <mxCell id="PzG2n6Dxidd_WywgWjzG-60" value="" style="endArrow=classic;html=1;rounded=0;fontSize=12;startSize=8;endSize=8;curved=1;entryX=0;entryY=0;entryDx=0;entryDy=0;" parent="WIyWlLk6GJQsqaUBKTNV-1" target="PzG2n6Dxidd_WywgWjzG-51" edge="1">
          <mxGeometry width="50" height="50" relative="1" as="geometry">
            <mxPoint x="-200" y="1600" as="sourcePoint" />
            <mxPoint x="-170" y="1600" as="targetPoint" />
          </mxGeometry>
        </mxCell>
        <mxCell id="PzG2n6Dxidd_WywgWjzG-62" value="" style="endArrow=classic;html=1;rounded=0;fontSize=12;startSize=8;endSize=8;curved=1;entryX=0;entryY=0;entryDx=0;entryDy=0;" parent="WIyWlLk6GJQsqaUBKTNV-1" edge="1">
          <mxGeometry width="50" height="50" relative="1" as="geometry">
            <mxPoint x="-200" y="1720" as="sourcePoint" />
            <mxPoint x="-160" y="1720" as="targetPoint" />
          </mxGeometry>
        </mxCell>
        <mxCell id="PzG2n6Dxidd_WywgWjzG-81" value="" style="edgeStyle=none;curved=1;rounded=0;orthogonalLoop=1;jettySize=auto;html=1;fontSize=12;startSize=8;endSize=8;" parent="WIyWlLk6GJQsqaUBKTNV-1" source="PzG2n6Dxidd_WywgWjzG-63" target="PzG2n6Dxidd_WywgWjzG-64" edge="1">
          <mxGeometry relative="1" as="geometry" />
        </mxCell>
        <mxCell id="PzG2n6Dxidd_WywgWjzG-63" value="Input 2&lt;div&gt;USER&lt;/div&gt;" style="rounded=0;whiteSpace=wrap;html=1;" parent="WIyWlLk6GJQsqaUBKTNV-1" vertex="1">
          <mxGeometry x="200" y="1600" width="160" height="80" as="geometry" />
        </mxCell>
        <mxCell id="PzG2n6Dxidd_WywgWjzG-82" value="" style="edgeStyle=none;curved=1;rounded=0;orthogonalLoop=1;jettySize=auto;html=1;fontSize=12;startSize=8;endSize=8;" parent="WIyWlLk6GJQsqaUBKTNV-1" source="PzG2n6Dxidd_WywgWjzG-64" target="PzG2n6Dxidd_WywgWjzG-75" edge="1">
          <mxGeometry relative="1" as="geometry" />
        </mxCell>
        <mxCell id="PzG2n6Dxidd_WywgWjzG-64" value="Masukkan nama dan password user&amp;nbsp;" style="rounded=0;whiteSpace=wrap;html=1;" parent="WIyWlLk6GJQsqaUBKTNV-1" vertex="1">
          <mxGeometry x="200" y="1720" width="160" height="80" as="geometry" />
        </mxCell>
        <mxCell id="PzG2n6Dxidd_WywgWjzG-51" value="Input 1&lt;div&gt;ADMIN&lt;/div&gt;" style="rounded=0;whiteSpace=wrap;html=1;movable=1;resizable=1;rotatable=1;deletable=1;editable=1;locked=0;connectable=1;" parent="WIyWlLk6GJQsqaUBKTNV-1" vertex="1">
          <mxGeometry x="-160" y="1600" width="160" height="80" as="geometry" />
        </mxCell>
        <mxCell id="PzG2n6Dxidd_WywgWjzG-52" value="Masukkan Nama dan Password Admin (Nama dan Password sudah ditentukan di sistem)" style="rounded=0;whiteSpace=wrap;html=1;movable=1;resizable=1;rotatable=1;deletable=1;editable=1;locked=0;connectable=1;" parent="WIyWlLk6GJQsqaUBKTNV-1" vertex="1">
          <mxGeometry x="-160" y="1720" width="160" height="80" as="geometry" />
        </mxCell>
        <mxCell id="PzG2n6Dxidd_WywgWjzG-54" value="Nama dan password benar atau salah" style="strokeWidth=2;html=1;shape=mxgraph.flowchart.decision;whiteSpace=wrap;" parent="WIyWlLk6GJQsqaUBKTNV-1" vertex="1">
          <mxGeometry x="-160" y="1840" width="160" height="160" as="geometry" />
        </mxCell>
        <mxCell id="PzG2n6Dxidd_WywgWjzG-66" value="" style="edgeStyle=none;curved=1;rounded=0;orthogonalLoop=1;jettySize=auto;html=1;fontSize=12;startSize=8;endSize=8;" parent="WIyWlLk6GJQsqaUBKTNV-1" source="PzG2n6Dxidd_WywgWjzG-51" target="PzG2n6Dxidd_WywgWjzG-52" edge="1">
          <mxGeometry relative="1" as="geometry" />
        </mxCell>
        <mxCell id="PzG2n6Dxidd_WywgWjzG-55" value="" style="edgeStyle=elbowEdgeStyle;elbow=horizontal;endArrow=classic;html=1;curved=0;rounded=0;endSize=8;startSize=8;fontSize=12;entryX=0;entryY=0.5;entryDx=0;entryDy=0;exitX=0;exitY=0.5;exitDx=0;exitDy=0;exitPerimeter=0;" parent="WIyWlLk6GJQsqaUBKTNV-1" source="PzG2n6Dxidd_WywgWjzG-54" target="PzG2n6Dxidd_WywgWjzG-52" edge="1">
          <mxGeometry width="50" height="50" relative="1" as="geometry">
            <mxPoint x="-170" y="1920" as="sourcePoint" />
            <mxPoint x="-80" y="1800" as="targetPoint" />
            <Array as="points">
              <mxPoint x="-200" y="1860" />
            </Array>
          </mxGeometry>
        </mxCell>
        <mxCell id="PzG2n6Dxidd_WywgWjzG-65" value="" style="edgeStyle=none;curved=1;rounded=0;orthogonalLoop=1;jettySize=auto;html=1;fontSize=12;startSize=8;endSize=8;" parent="WIyWlLk6GJQsqaUBKTNV-1" source="PzG2n6Dxidd_WywgWjzG-52" target="PzG2n6Dxidd_WywgWjzG-54" edge="1">
          <mxGeometry relative="1" as="geometry" />
        </mxCell>
        <mxCell id="PzG2n6Dxidd_WywgWjzG-75" value="Nama dan password benar atau salah" style="strokeWidth=2;html=1;shape=mxgraph.flowchart.decision;whiteSpace=wrap;" parent="WIyWlLk6GJQsqaUBKTNV-1" vertex="1">
          <mxGeometry x="200" y="1840" width="160" height="160" as="geometry" />
        </mxCell>
        <mxCell id="PzG2n6Dxidd_WywgWjzG-77" value="" style="endArrow=none;html=1;rounded=0;fontSize=12;startSize=8;endSize=8;curved=1;exitX=0;exitY=0.5;exitDx=0;exitDy=0;exitPerimeter=0;" parent="WIyWlLk6GJQsqaUBKTNV-1" source="PzG2n6Dxidd_WywgWjzG-75" edge="1">
          <mxGeometry width="50" height="50" relative="1" as="geometry">
            <mxPoint x="140" y="2020" as="sourcePoint" />
            <mxPoint x="120" y="1920" as="targetPoint" />
          </mxGeometry>
        </mxCell>
        <mxCell id="PzG2n6Dxidd_WywgWjzG-78" value="" style="endArrow=none;html=1;rounded=0;fontSize=12;startSize=8;endSize=8;curved=1;" parent="WIyWlLk6GJQsqaUBKTNV-1" edge="1">
          <mxGeometry width="50" height="50" relative="1" as="geometry">
            <mxPoint x="120" y="1920" as="sourcePoint" />
            <mxPoint x="120" y="2040" as="targetPoint" />
          </mxGeometry>
        </mxCell>
        <mxCell id="PzG2n6Dxidd_WywgWjzG-79" value="" style="edgeStyle=segmentEdgeStyle;endArrow=classic;html=1;curved=0;rounded=0;endSize=8;startSize=8;fontSize=12;entryX=0.75;entryY=1;entryDx=0;entryDy=0;" parent="WIyWlLk6GJQsqaUBKTNV-1" target="PzG2n6Dxidd_WywgWjzG-59" edge="1">
          <mxGeometry width="50" height="50" relative="1" as="geometry">
            <mxPoint x="120" y="2040" as="sourcePoint" />
            <mxPoint x="-160" y="1970" as="targetPoint" />
          </mxGeometry>
        </mxCell>
        <mxCell id="PzG2n6Dxidd_WywgWjzG-83" value="Salah" style="text;strokeColor=none;align=center;fillColor=none;html=1;verticalAlign=middle;whiteSpace=wrap;rounded=0;fontSize=16;" parent="WIyWlLk6GJQsqaUBKTNV-1" vertex="1">
          <mxGeometry x="130" y="1890" width="60" height="30" as="geometry" />
        </mxCell>
        <mxCell id="PzG2n6Dxidd_WywgWjzG-85" value="Salah" style="text;strokeColor=none;align=center;fillColor=none;html=1;verticalAlign=middle;whiteSpace=wrap;rounded=0;fontSize=16;" parent="WIyWlLk6GJQsqaUBKTNV-1" vertex="1">
          <mxGeometry x="-220" y="1920" width="60" height="30" as="geometry" />
        </mxCell>
        <mxCell id="PzG2n6Dxidd_WywgWjzG-86" value="Input 2&lt;div&gt;KEMBALI&lt;/div&gt;" style="rounded=0;whiteSpace=wrap;html=1;" parent="WIyWlLk6GJQsqaUBKTNV-1" vertex="1">
          <mxGeometry x="560" y="1600" width="160" height="80" as="geometry" />
        </mxCell>
        <mxCell id="PzG2n6Dxidd_WywgWjzG-87" value="" style="edgeStyle=segmentEdgeStyle;endArrow=classic;html=1;curved=0;rounded=0;endSize=8;startSize=8;fontSize=12;exitX=1;exitY=0.5;exitDx=0;exitDy=0;exitPerimeter=0;entryX=0.5;entryY=0;entryDx=0;entryDy=0;" parent="WIyWlLk6GJQsqaUBKTNV-1" source="PzG2n6Dxidd_WywgWjzG-48" target="PzG2n6Dxidd_WywgWjzG-86" edge="1">
          <mxGeometry width="50" height="50" relative="1" as="geometry">
            <mxPoint x="330" y="1520" as="sourcePoint" />
            <mxPoint x="640.800048828125" y="1590" as="targetPoint" />
          </mxGeometry>
        </mxCell>
        <mxCell id="PzG2n6Dxidd_WywgWjzG-88" value="" style="edgeStyle=elbowEdgeStyle;elbow=horizontal;endArrow=classic;html=1;curved=0;rounded=0;endSize=8;startSize=8;fontSize=12;exitX=1;exitY=0.5;exitDx=0;exitDy=0;entryX=1.01;entryY=0.284;entryDx=0;entryDy=0;entryPerimeter=0;" parent="WIyWlLk6GJQsqaUBKTNV-1" edge="1">
          <mxGeometry width="50" height="50" relative="1" as="geometry">
            <mxPoint x="718.4" y="1629.21" as="sourcePoint" />
            <mxPoint x="359.9999999999999" y="300.002" as="targetPoint" />
            <Array as="points">
              <mxPoint x="758.4" y="1609.21" />
            </Array>
          </mxGeometry>
        </mxCell>
        <mxCell id="PzG2n6Dxidd_WywgWjzG-91" value="DAFTAR LUKISAN&lt;div&gt;MUSEUM OF ART&lt;/div&gt;" style="swimlane;fontStyle=0;childLayout=stackLayout;horizontal=1;startSize=26;fillColor=none;horizontalStack=0;resizeParent=1;resizeParentMax=0;resizeLast=0;collapsible=1;marginBottom=0;html=1;" parent="WIyWlLk6GJQsqaUBKTNV-1" vertex="1">
          <mxGeometry x="-160" y="2080" width="160" height="190" as="geometry" />
        </mxCell>
        <mxCell id="PzG2n6Dxidd_WywgWjzG-92" value="1. TAMBAH DATA" style="text;strokeColor=none;fillColor=none;align=left;verticalAlign=top;spacingLeft=4;spacingRight=4;overflow=hidden;rotatable=0;points=[[0,0.5],[1,0.5]];portConstraint=eastwest;whiteSpace=wrap;html=1;" parent="PzG2n6Dxidd_WywgWjzG-91" vertex="1">
          <mxGeometry y="26" width="160" height="34" as="geometry" />
        </mxCell>
        <mxCell id="PzG2n6Dxidd_WywgWjzG-93" value="2. TAMPILKAN DATA" style="text;strokeColor=none;fillColor=none;align=left;verticalAlign=top;spacingLeft=4;spacingRight=4;overflow=hidden;rotatable=0;points=[[0,0.5],[1,0.5]];portConstraint=eastwest;whiteSpace=wrap;html=1;" parent="PzG2n6Dxidd_WywgWjzG-91" vertex="1">
          <mxGeometry y="60" width="160" height="38" as="geometry" />
        </mxCell>
        <mxCell id="PzG2n6Dxidd_WywgWjzG-94" value="3. UBAH DATA" style="text;strokeColor=none;fillColor=none;align=left;verticalAlign=top;spacingLeft=4;spacingRight=4;overflow=hidden;rotatable=0;points=[[0,0.5],[1,0.5]];portConstraint=eastwest;whiteSpace=wrap;html=1;" parent="PzG2n6Dxidd_WywgWjzG-91" vertex="1">
          <mxGeometry y="98" width="160" height="32" as="geometry" />
        </mxCell>
        <mxCell id="PzG2n6Dxidd_WywgWjzG-95" value="4. HAPUS DATA" style="text;strokeColor=none;fillColor=none;align=left;verticalAlign=top;spacingLeft=4;spacingRight=4;overflow=hidden;rotatable=0;points=[[0,0.5],[1,0.5]];portConstraint=eastwest;whiteSpace=wrap;html=1;" parent="PzG2n6Dxidd_WywgWjzG-91" vertex="1">
          <mxGeometry y="130" width="160" height="32" as="geometry" />
        </mxCell>
        <mxCell id="PzG2n6Dxidd_WywgWjzG-96" value="5. KEMBALI" style="text;strokeColor=none;fillColor=none;align=left;verticalAlign=top;spacingLeft=4;spacingRight=4;overflow=hidden;rotatable=0;points=[[0,0.5],[1,0.5]];portConstraint=eastwest;whiteSpace=wrap;html=1;" parent="PzG2n6Dxidd_WywgWjzG-91" vertex="1">
          <mxGeometry y="162" width="160" height="28" as="geometry" />
        </mxCell>
        <mxCell id="PzG2n6Dxidd_WywgWjzG-97" value="" style="endArrow=classic;html=1;rounded=0;fontSize=12;startSize=8;endSize=8;curved=1;entryX=0;entryY=0;entryDx=0;entryDy=0;" parent="WIyWlLk6GJQsqaUBKTNV-1" edge="1">
          <mxGeometry width="50" height="50" relative="1" as="geometry">
            <mxPoint y="2274" as="sourcePoint" />
            <mxPoint x="80" y="2274" as="targetPoint" />
          </mxGeometry>
        </mxCell>
        <mxCell id="PzG2n6Dxidd_WywgWjzG-98" value="" style="endArrow=classic;html=1;rounded=0;fontSize=12;startSize=8;endSize=8;curved=1;entryX=0;entryY=0;entryDx=0;entryDy=0;" parent="WIyWlLk6GJQsqaUBKTNV-1" edge="1">
          <mxGeometry width="50" height="50" relative="1" as="geometry">
            <mxPoint x="160" y="1600" as="sourcePoint" />
            <mxPoint x="200" y="1600" as="targetPoint" />
          </mxGeometry>
        </mxCell>
        <mxCell id="PzG2n6Dxidd_WywgWjzG-99" value="" style="endArrow=classic;html=1;rounded=0;fontSize=12;startSize=8;endSize=8;curved=1;entryX=0;entryY=0;entryDx=0;entryDy=0;" parent="WIyWlLk6GJQsqaUBKTNV-1" edge="1">
          <mxGeometry width="50" height="50" relative="1" as="geometry">
            <mxPoint x="520" y="1600" as="sourcePoint" />
            <mxPoint x="560" y="1600" as="targetPoint" />
          </mxGeometry>
        </mxCell>
        <mxCell id="PzG2n6Dxidd_WywgWjzG-100" value="" style="endArrow=classic;html=1;rounded=0;fontSize=12;startSize=8;endSize=8;curved=1;entryX=0;entryY=0;entryDx=0;entryDy=0;" parent="WIyWlLk6GJQsqaUBKTNV-1" edge="1">
          <mxGeometry width="50" height="50" relative="1" as="geometry">
            <mxPoint x="160" y="1720" as="sourcePoint" />
            <mxPoint x="200" y="1719" as="targetPoint" />
          </mxGeometry>
        </mxCell>
        <mxCell id="PzG2n6Dxidd_WywgWjzG-101" value="print" style="text;strokeColor=none;align=center;fillColor=none;html=1;verticalAlign=middle;whiteSpace=wrap;rounded=0;fontSize=16;" parent="WIyWlLk6GJQsqaUBKTNV-1" vertex="1">
          <mxGeometry x="190" y="1170" width="60" height="30" as="geometry" />
        </mxCell>
        <mxCell id="PzG2n6Dxidd_WywgWjzG-102" value="print" style="text;strokeColor=none;align=center;fillColor=none;html=1;verticalAlign=middle;whiteSpace=wrap;rounded=0;fontSize=16;" parent="WIyWlLk6GJQsqaUBKTNV-1" vertex="1">
          <mxGeometry x="-170" y="2050" width="60" height="30" as="geometry" />
        </mxCell>
        <mxCell id="PzG2n6Dxidd_WywgWjzG-104" value="" style="endArrow=classic;html=1;rounded=0;fontSize=12;startSize=8;endSize=8;curved=1;exitX=0.5;exitY=1;exitDx=0;exitDy=0;exitPerimeter=0;entryX=0.5;entryY=0;entryDx=0;entryDy=0;" parent="WIyWlLk6GJQsqaUBKTNV-1" source="PzG2n6Dxidd_WywgWjzG-54" target="PzG2n6Dxidd_WywgWjzG-91" edge="1">
          <mxGeometry width="50" height="50" relative="1" as="geometry">
            <mxPoint x="-120" y="2170" as="sourcePoint" />
            <mxPoint x="-70" y="2120" as="targetPoint" />
          </mxGeometry>
        </mxCell>
        <mxCell id="PzG2n6Dxidd_WywgWjzG-106" value="Input 1,2,3,4, atau 5" style="strokeWidth=2;html=1;shape=mxgraph.flowchart.decision;whiteSpace=wrap;" parent="WIyWlLk6GJQsqaUBKTNV-1" vertex="1">
          <mxGeometry x="-140" y="2320" width="120" height="120" as="geometry" />
        </mxCell>
        <mxCell id="PzG2n6Dxidd_WywgWjzG-119" value="" style="edgeStyle=none;curved=1;rounded=0;orthogonalLoop=1;jettySize=auto;html=1;fontSize=12;startSize=8;endSize=8;" parent="WIyWlLk6GJQsqaUBKTNV-1" source="PzG2n6Dxidd_WywgWjzG-108" target="PzG2n6Dxidd_WywgWjzG-114" edge="1">
          <mxGeometry relative="1" as="geometry" />
        </mxCell>
        <mxCell id="PzG2n6Dxidd_WywgWjzG-108" value="Input 2&lt;div&gt;TAMPILKAN DATA&lt;/div&gt;" style="rounded=0;whiteSpace=wrap;html=1;" parent="WIyWlLk6GJQsqaUBKTNV-1" vertex="1">
          <mxGeometry x="-400" y="2520" width="160" height="80" as="geometry" />
        </mxCell>
        <mxCell id="PzG2n6Dxidd_WywgWjzG-109" value="Input 5&lt;div&gt;KEMBALI&lt;/div&gt;" style="rounded=0;whiteSpace=wrap;html=1;" parent="WIyWlLk6GJQsqaUBKTNV-1" vertex="1">
          <mxGeometry x="320" y="2520" width="160" height="80" as="geometry" />
        </mxCell>
        <mxCell id="PzG2n6Dxidd_WywgWjzG-121" value="" style="edgeStyle=none;curved=1;rounded=0;orthogonalLoop=1;jettySize=auto;html=1;fontSize=12;startSize=8;endSize=8;" parent="WIyWlLk6GJQsqaUBKTNV-1" source="PzG2n6Dxidd_WywgWjzG-110" target="PzG2n6Dxidd_WywgWjzG-116" edge="1">
          <mxGeometry relative="1" as="geometry" />
        </mxCell>
        <mxCell id="PzG2n6Dxidd_WywgWjzG-110" value="Input 4&lt;div&gt;HAPUS DATA&lt;/div&gt;" style="rounded=0;whiteSpace=wrap;html=1;" parent="WIyWlLk6GJQsqaUBKTNV-1" vertex="1">
          <mxGeometry x="80" y="2520" width="160" height="80" as="geometry" />
        </mxCell>
        <mxCell id="PzG2n6Dxidd_WywgWjzG-117" value="" style="edgeStyle=none;curved=1;rounded=0;orthogonalLoop=1;jettySize=auto;html=1;fontSize=12;startSize=8;endSize=8;" parent="WIyWlLk6GJQsqaUBKTNV-1" source="PzG2n6Dxidd_WywgWjzG-111" target="PzG2n6Dxidd_WywgWjzG-112" edge="1">
          <mxGeometry relative="1" as="geometry" />
        </mxCell>
        <mxCell id="PzG2n6Dxidd_WywgWjzG-111" value="Input 1&lt;div&gt;TAMBAH DATA&lt;/div&gt;" style="rounded=0;whiteSpace=wrap;html=1;" parent="WIyWlLk6GJQsqaUBKTNV-1" vertex="1">
          <mxGeometry x="-640" y="2520" width="160" height="80" as="geometry" />
        </mxCell>
        <mxCell id="PzG2n6Dxidd_WywgWjzG-118" value="" style="edgeStyle=none;curved=1;rounded=0;orthogonalLoop=1;jettySize=auto;html=1;fontSize=12;startSize=8;endSize=8;" parent="WIyWlLk6GJQsqaUBKTNV-1" source="PzG2n6Dxidd_WywgWjzG-112" target="PzG2n6Dxidd_WywgWjzG-113" edge="1">
          <mxGeometry relative="1" as="geometry" />
        </mxCell>
        <mxCell id="PzG2n6Dxidd_WywgWjzG-112" value="input Nama lukisan, Nama pelukis, dan Tahun dibuat" style="rounded=0;whiteSpace=wrap;html=1;" parent="WIyWlLk6GJQsqaUBKTNV-1" vertex="1">
          <mxGeometry x="-640" y="2640" width="160" height="80" as="geometry" />
        </mxCell>
        <mxCell id="PzG2n6Dxidd_WywgWjzG-113" value="data_lukisan" style="strokeWidth=2;html=1;shape=mxgraph.flowchart.database;whiteSpace=wrap;" parent="WIyWlLk6GJQsqaUBKTNV-1" vertex="1">
          <mxGeometry x="-600" y="2760" width="80" height="80" as="geometry" />
        </mxCell>
        <mxCell id="PzG2n6Dxidd_WywgWjzG-114" value="Menampilkan Data Lukisan yang ada di data_lukisan" style="rounded=0;whiteSpace=wrap;html=1;" parent="WIyWlLk6GJQsqaUBKTNV-1" vertex="1">
          <mxGeometry x="-400" y="2640" width="160" height="80" as="geometry" />
        </mxCell>
        <mxCell id="PzG2n6Dxidd_WywgWjzG-116" value="Menghapus lukisan yang diinginkan di data_lukisan" style="rounded=0;whiteSpace=wrap;html=1;" parent="WIyWlLk6GJQsqaUBKTNV-1" vertex="1">
          <mxGeometry x="80" y="2640" width="160" height="80" as="geometry" />
        </mxCell>
        <mxCell id="PzG2n6Dxidd_WywgWjzG-122" value="" style="endArrow=none;html=1;rounded=0;fontSize=12;startSize=8;endSize=8;curved=1;" parent="WIyWlLk6GJQsqaUBKTNV-1" edge="1">
          <mxGeometry width="50" height="50" relative="1" as="geometry">
            <mxPoint x="-560" y="2480" as="sourcePoint" />
            <mxPoint x="400.800048828125" y="2480" as="targetPoint" />
          </mxGeometry>
        </mxCell>
        <mxCell id="PzG2n6Dxidd_WywgWjzG-123" value="" style="endArrow=classic;html=1;rounded=0;fontSize=12;startSize=8;endSize=8;curved=1;entryX=0.5;entryY=0;entryDx=0;entryDy=0;" parent="WIyWlLk6GJQsqaUBKTNV-1" target="PzG2n6Dxidd_WywgWjzG-111" edge="1">
          <mxGeometry width="50" height="50" relative="1" as="geometry">
            <mxPoint x="-560" y="2480" as="sourcePoint" />
            <mxPoint x="-510" y="2520" as="targetPoint" />
          </mxGeometry>
        </mxCell>
        <mxCell id="PzG2n6Dxidd_WywgWjzG-124" value="" style="endArrow=classic;html=1;rounded=0;fontSize=12;startSize=8;endSize=8;curved=1;entryX=0.5;entryY=0;entryDx=0;entryDy=0;" parent="WIyWlLk6GJQsqaUBKTNV-1" edge="1">
          <mxGeometry width="50" height="50" relative="1" as="geometry">
            <mxPoint x="-320.5" y="2480" as="sourcePoint" />
            <mxPoint x="-320.5" y="2520" as="targetPoint" />
          </mxGeometry>
        </mxCell>
        <mxCell id="PzG2n6Dxidd_WywgWjzG-126" value="" style="endArrow=classic;html=1;rounded=0;fontSize=12;startSize=8;endSize=8;curved=1;entryX=0.5;entryY=0;entryDx=0;entryDy=0;" parent="WIyWlLk6GJQsqaUBKTNV-1" target="PzG2n6Dxidd_WywgWjzG-107" edge="1">
          <mxGeometry width="50" height="50" relative="1" as="geometry">
            <mxPoint x="-80" y="2480" as="sourcePoint" />
            <mxPoint x="-260" y="2520" as="targetPoint" />
          </mxGeometry>
        </mxCell>
        <mxCell id="PzG2n6Dxidd_WywgWjzG-127" value="" style="endArrow=classic;html=1;rounded=0;fontSize=12;startSize=8;endSize=8;curved=1;entryX=0.5;entryY=0;entryDx=0;entryDy=0;" parent="WIyWlLk6GJQsqaUBKTNV-1" target="PzG2n6Dxidd_WywgWjzG-110" edge="1">
          <mxGeometry width="50" height="50" relative="1" as="geometry">
            <mxPoint x="160" y="2480" as="sourcePoint" />
            <mxPoint x="70" y="2520" as="targetPoint" />
          </mxGeometry>
        </mxCell>
        <mxCell id="PzG2n6Dxidd_WywgWjzG-128" value="" style="endArrow=classic;html=1;rounded=0;fontSize=12;startSize=8;endSize=8;curved=1;entryX=0.5;entryY=0;entryDx=0;entryDy=0;" parent="WIyWlLk6GJQsqaUBKTNV-1" target="PzG2n6Dxidd_WywgWjzG-109" edge="1">
          <mxGeometry width="50" height="50" relative="1" as="geometry">
            <mxPoint x="400" y="2480" as="sourcePoint" />
            <mxPoint x="310" y="2520" as="targetPoint" />
          </mxGeometry>
        </mxCell>
        <mxCell id="PzG2n6Dxidd_WywgWjzG-129" value="" style="endArrow=none;html=1;rounded=0;fontSize=12;startSize=8;endSize=8;curved=1;" parent="WIyWlLk6GJQsqaUBKTNV-1" edge="1">
          <mxGeometry width="50" height="50" relative="1" as="geometry">
            <mxPoint x="-560.4" y="2880" as="sourcePoint" />
            <mxPoint x="160" y="2880" as="targetPoint" />
          </mxGeometry>
        </mxCell>
        <mxCell id="PzG2n6Dxidd_WywgWjzG-130" value="" style="endArrow=none;html=1;rounded=0;fontSize=12;startSize=8;endSize=8;curved=1;" parent="WIyWlLk6GJQsqaUBKTNV-1" edge="1">
          <mxGeometry width="50" height="50" relative="1" as="geometry">
            <mxPoint x="-560" y="2880" as="sourcePoint" />
            <mxPoint x="-680" y="2880" as="targetPoint" />
          </mxGeometry>
        </mxCell>
        <mxCell id="PzG2n6Dxidd_WywgWjzG-132" value="" style="edgeStyle=elbowEdgeStyle;elbow=horizontal;endArrow=classic;html=1;curved=0;rounded=0;endSize=8;startSize=8;fontSize=12;entryX=0;entryY=0.5;entryDx=0;entryDy=0;entryPerimeter=0;" parent="WIyWlLk6GJQsqaUBKTNV-1" target="PzG2n6Dxidd_WywgWjzG-106" edge="1">
          <mxGeometry width="50" height="50" relative="1" as="geometry">
            <mxPoint x="-660" y="2880" as="sourcePoint" />
            <mxPoint x="-160" y="2380" as="targetPoint" />
            <Array as="points">
              <mxPoint x="-700" y="2630" />
            </Array>
          </mxGeometry>
        </mxCell>
        <mxCell id="PzG2n6Dxidd_WywgWjzG-134" value="" style="endArrow=none;html=1;rounded=0;fontSize=12;startSize=8;endSize=8;curved=1;exitX=0.5;exitY=1;exitDx=0;exitDy=0;" parent="WIyWlLk6GJQsqaUBKTNV-1" source="PzG2n6Dxidd_WywgWjzG-116" edge="1">
          <mxGeometry width="50" height="50" relative="1" as="geometry">
            <mxPoint x="170" y="2750" as="sourcePoint" />
            <mxPoint x="160" y="2880" as="targetPoint" />
          </mxGeometry>
        </mxCell>
        <mxCell id="PzG2n6Dxidd_WywgWjzG-135" value="" style="endArrow=none;html=1;rounded=0;fontSize=12;startSize=8;endSize=8;curved=1;exitX=0.5;exitY=1;exitDx=0;exitDy=0;" parent="WIyWlLk6GJQsqaUBKTNV-1" edge="1">
          <mxGeometry width="50" height="50" relative="1" as="geometry">
            <mxPoint x="-80.5" y="2720" as="sourcePoint" />
            <mxPoint x="-80.5" y="2880" as="targetPoint" />
          </mxGeometry>
        </mxCell>
        <mxCell id="PzG2n6Dxidd_WywgWjzG-136" value="" style="endArrow=none;html=1;rounded=0;fontSize=12;startSize=8;endSize=8;curved=1;exitX=0.5;exitY=1;exitDx=0;exitDy=0;" parent="WIyWlLk6GJQsqaUBKTNV-1" edge="1">
          <mxGeometry width="50" height="50" relative="1" as="geometry">
            <mxPoint x="-320.5" y="2720" as="sourcePoint" />
            <mxPoint x="-320.5" y="2880" as="targetPoint" />
          </mxGeometry>
        </mxCell>
        <mxCell id="PzG2n6Dxidd_WywgWjzG-138" value="" style="endArrow=none;html=1;rounded=0;fontSize=12;startSize=8;endSize=8;curved=1;exitX=0.5;exitY=1;exitDx=0;exitDy=0;exitPerimeter=0;" parent="WIyWlLk6GJQsqaUBKTNV-1" source="PzG2n6Dxidd_WywgWjzG-113" edge="1">
          <mxGeometry width="50" height="50" relative="1" as="geometry">
            <mxPoint x="-500" y="2790" as="sourcePoint" />
            <mxPoint x="-560" y="2880" as="targetPoint" />
          </mxGeometry>
        </mxCell>
        <mxCell id="PzG2n6Dxidd_WywgWjzG-139" value="" style="endArrow=none;html=1;rounded=0;fontSize=12;startSize=8;endSize=8;curved=1;exitX=0.5;exitY=1;exitDx=0;exitDy=0;exitPerimeter=0;" parent="WIyWlLk6GJQsqaUBKTNV-1" source="PzG2n6Dxidd_WywgWjzG-106" edge="1">
          <mxGeometry width="50" height="50" relative="1" as="geometry">
            <mxPoint x="100" y="2290" as="sourcePoint" />
            <mxPoint x="-80" y="2480" as="targetPoint" />
          </mxGeometry>
        </mxCell>
        <mxCell id="PzG2n6Dxidd_WywgWjzG-140" value="" style="group" parent="WIyWlLk6GJQsqaUBKTNV-1" vertex="1" connectable="0">
          <mxGeometry x="-160" y="2520" width="160" height="200" as="geometry" />
        </mxCell>
        <mxCell id="PzG2n6Dxidd_WywgWjzG-107" value="Input 3&lt;div&gt;UBAH DATA&lt;/div&gt;" style="rounded=0;whiteSpace=wrap;html=1;" parent="PzG2n6Dxidd_WywgWjzG-140" vertex="1">
          <mxGeometry width="160" height="80" as="geometry" />
        </mxCell>
        <mxCell id="PzG2n6Dxidd_WywgWjzG-115" value="Mengubah data lukisan yang tersedia di data_lukisan" style="rounded=0;whiteSpace=wrap;html=1;" parent="PzG2n6Dxidd_WywgWjzG-140" vertex="1">
          <mxGeometry y="120" width="160" height="80" as="geometry" />
        </mxCell>
        <mxCell id="PzG2n6Dxidd_WywgWjzG-120" value="" style="edgeStyle=none;curved=1;rounded=0;orthogonalLoop=1;jettySize=auto;html=1;fontSize=12;startSize=8;endSize=8;" parent="PzG2n6Dxidd_WywgWjzG-140" source="PzG2n6Dxidd_WywgWjzG-107" target="PzG2n6Dxidd_WywgWjzG-115" edge="1">
          <mxGeometry relative="1" as="geometry" />
        </mxCell>
        <mxCell id="V0uCJIoHsD2Yyxn5Xrf6-8" value="" style="group" vertex="1" connectable="0" parent="WIyWlLk6GJQsqaUBKTNV-1">
          <mxGeometry x="610" y="2220" width="560" height="540" as="geometry" />
        </mxCell>
        <mxCell id="PzG2n6Dxidd_WywgWjzG-148" value="DAFTAR LUKISAN&lt;div&gt;MUSEUM OF ART&lt;/div&gt;" style="swimlane;fontStyle=0;childLayout=stackLayout;horizontal=1;startSize=26;fillColor=none;horizontalStack=0;resizeParent=1;resizeParentMax=0;resizeLast=0;collapsible=1;marginBottom=0;html=1;" parent="V0uCJIoHsD2Yyxn5Xrf6-8" vertex="1">
          <mxGeometry x="200" width="160" height="92" as="geometry" />
        </mxCell>
        <mxCell id="PzG2n6Dxidd_WywgWjzG-149" value="1. TAMPILKAN DATA" style="text;strokeColor=none;fillColor=none;align=left;verticalAlign=top;spacingLeft=4;spacingRight=4;overflow=hidden;rotatable=0;points=[[0,0.5],[1,0.5]];portConstraint=eastwest;whiteSpace=wrap;html=1;" parent="PzG2n6Dxidd_WywgWjzG-148" vertex="1">
          <mxGeometry y="26" width="160" height="34" as="geometry" />
        </mxCell>
        <mxCell id="PzG2n6Dxidd_WywgWjzG-153" value="2.&amp;nbsp; KEMBALI" style="text;strokeColor=none;fillColor=none;align=left;verticalAlign=top;spacingLeft=4;spacingRight=4;overflow=hidden;rotatable=0;points=[[0,0.5],[1,0.5]];portConstraint=eastwest;whiteSpace=wrap;html=1;" parent="PzG2n6Dxidd_WywgWjzG-148" vertex="1">
          <mxGeometry y="60" width="160" height="32" as="geometry" />
        </mxCell>
        <mxCell id="PzG2n6Dxidd_WywgWjzG-154" value="" style="group" parent="V0uCJIoHsD2Yyxn5Xrf6-8" vertex="1" connectable="0">
          <mxGeometry y="340" width="160" height="200" as="geometry" />
        </mxCell>
        <mxCell id="PzG2n6Dxidd_WywgWjzG-155" value="Input 1&lt;div&gt;TAMPILKAN DATA&lt;/div&gt;" style="rounded=0;whiteSpace=wrap;html=1;" parent="PzG2n6Dxidd_WywgWjzG-154" vertex="1">
          <mxGeometry width="160" height="80" as="geometry" />
        </mxCell>
        <mxCell id="PzG2n6Dxidd_WywgWjzG-156" value="Menampilkan data lukisan yang ada di data_lukisan" style="rounded=0;whiteSpace=wrap;html=1;" parent="PzG2n6Dxidd_WywgWjzG-154" vertex="1">
          <mxGeometry y="120" width="160" height="80" as="geometry" />
        </mxCell>
        <mxCell id="PzG2n6Dxidd_WywgWjzG-157" value="" style="edgeStyle=none;curved=1;rounded=0;orthogonalLoop=1;jettySize=auto;html=1;fontSize=12;startSize=8;endSize=8;" parent="PzG2n6Dxidd_WywgWjzG-154" source="PzG2n6Dxidd_WywgWjzG-155" target="PzG2n6Dxidd_WywgWjzG-156" edge="1">
          <mxGeometry relative="1" as="geometry" />
        </mxCell>
        <mxCell id="PzG2n6Dxidd_WywgWjzG-147" value="Input 1 atau 2" style="strokeWidth=2;html=1;shape=mxgraph.flowchart.decision;whiteSpace=wrap;" parent="V0uCJIoHsD2Yyxn5Xrf6-8" vertex="1">
          <mxGeometry x="200" y="180" width="160" height="160" as="geometry" />
        </mxCell>
        <mxCell id="V0uCJIoHsD2Yyxn5Xrf6-1" value="" style="endArrow=classic;html=1;rounded=0;fontSize=12;startSize=8;endSize=8;curved=1;entryX=0.5;entryY=0;entryDx=0;entryDy=0;entryPerimeter=0;exitX=0.501;exitY=1.11;exitDx=0;exitDy=0;exitPerimeter=0;" edge="1" parent="V0uCJIoHsD2Yyxn5Xrf6-8" source="PzG2n6Dxidd_WywgWjzG-153" target="PzG2n6Dxidd_WywgWjzG-147">
          <mxGeometry width="50" height="50" relative="1" as="geometry">
            <mxPoint x="110" y="140" as="sourcePoint" />
            <mxPoint x="260" y="150" as="targetPoint" />
          </mxGeometry>
        </mxCell>
        <mxCell id="V0uCJIoHsD2Yyxn5Xrf6-5" value="Input 2&lt;div&gt;KEMBALI&lt;/div&gt;" style="rounded=0;whiteSpace=wrap;html=1;" vertex="1" parent="V0uCJIoHsD2Yyxn5Xrf6-8">
          <mxGeometry x="400" y="340" width="160" height="80" as="geometry" />
        </mxCell>
        <mxCell id="V0uCJIoHsD2Yyxn5Xrf6-6" value="" style="edgeStyle=segmentEdgeStyle;endArrow=classic;html=1;curved=0;rounded=0;endSize=8;startSize=8;fontSize=12;" edge="1" parent="V0uCJIoHsD2Yyxn5Xrf6-8" source="PzG2n6Dxidd_WywgWjzG-147">
          <mxGeometry width="50" height="50" relative="1" as="geometry">
            <mxPoint x="120" y="320" as="sourcePoint" />
            <mxPoint x="80" y="340" as="targetPoint" />
          </mxGeometry>
        </mxCell>
        <mxCell id="V0uCJIoHsD2Yyxn5Xrf6-7" value="" style="edgeStyle=segmentEdgeStyle;endArrow=classic;html=1;curved=0;rounded=0;endSize=8;startSize=8;fontSize=12;exitX=1;exitY=0.5;exitDx=0;exitDy=0;exitPerimeter=0;entryX=0.5;entryY=0;entryDx=0;entryDy=0;" edge="1" parent="V0uCJIoHsD2Yyxn5Xrf6-8" source="PzG2n6Dxidd_WywgWjzG-147" target="V0uCJIoHsD2Yyxn5Xrf6-5">
          <mxGeometry width="50" height="50" relative="1" as="geometry">
            <mxPoint x="310" y="420" as="sourcePoint" />
            <mxPoint x="540" y="320" as="targetPoint" />
            <Array as="points">
              <mxPoint x="480" y="260" />
            </Array>
          </mxGeometry>
        </mxCell>
        <mxCell id="V0uCJIoHsD2Yyxn5Xrf6-12" value="" style="edgeStyle=segmentEdgeStyle;endArrow=classic;html=1;curved=0;rounded=0;endSize=8;startSize=8;fontSize=12;exitX=1;exitY=0.5;exitDx=0;exitDy=0;entryX=0.5;entryY=1;entryDx=0;entryDy=0;entryPerimeter=0;" edge="1" parent="V0uCJIoHsD2Yyxn5Xrf6-8" source="PzG2n6Dxidd_WywgWjzG-156" target="PzG2n6Dxidd_WywgWjzG-147">
          <mxGeometry width="50" height="50" relative="1" as="geometry">
            <mxPoint x="210" y="290" as="sourcePoint" />
            <mxPoint x="260" y="240" as="targetPoint" />
          </mxGeometry>
        </mxCell>
        <mxCell id="V0uCJIoHsD2Yyxn5Xrf6-13" value="Loop" style="text;strokeColor=none;align=center;fillColor=none;html=1;verticalAlign=middle;whiteSpace=wrap;rounded=0;fontSize=16;" vertex="1" parent="V0uCJIoHsD2Yyxn5Xrf6-8">
          <mxGeometry x="180" y="470" width="60" height="30" as="geometry" />
        </mxCell>
        <mxCell id="V0uCJIoHsD2Yyxn5Xrf6-11" value="" style="edgeStyle=segmentEdgeStyle;endArrow=classic;html=1;curved=0;rounded=0;endSize=8;startSize=8;fontSize=12;exitX=0.5;exitY=1;exitDx=0;exitDy=0;exitPerimeter=0;entryX=-0.022;entryY=0.884;entryDx=0;entryDy=0;entryPerimeter=0;" edge="1" parent="WIyWlLk6GJQsqaUBKTNV-1" source="PzG2n6Dxidd_WywgWjzG-75" target="PzG2n6Dxidd_WywgWjzG-149">
          <mxGeometry width="50" height="50" relative="1" as="geometry">
            <mxPoint x="460" y="2110" as="sourcePoint" />
            <mxPoint x="790" y="2270" as="targetPoint" />
            <Array as="points">
              <mxPoint x="280" y="2276" />
            </Array>
          </mxGeometry>
        </mxCell>
        <mxCell id="V0uCJIoHsD2Yyxn5Xrf6-14" value="" style="endArrow=classic;html=1;rounded=0;fontSize=12;startSize=8;endSize=8;curved=1;" edge="1" parent="WIyWlLk6GJQsqaUBKTNV-1">
          <mxGeometry width="50" height="50" relative="1" as="geometry">
            <mxPoint x="560" y="2560" as="sourcePoint" />
            <mxPoint x="610" y="2560" as="targetPoint" />
          </mxGeometry>
        </mxCell>
        <mxCell id="V0uCJIoHsD2Yyxn5Xrf6-15" value="" style="endArrow=classic;html=1;rounded=0;fontSize=12;startSize=8;endSize=8;curved=1;exitX=1;exitY=1;exitDx=0;exitDy=0;" edge="1" parent="WIyWlLk6GJQsqaUBKTNV-1" source="PzG2n6Dxidd_WywgWjzG-156">
          <mxGeometry width="50" height="50" relative="1" as="geometry">
            <mxPoint x="430" y="2680" as="sourcePoint" />
            <mxPoint x="820" y="2760" as="targetPoint" />
          </mxGeometry>
        </mxCell>
        <mxCell id="V0uCJIoHsD2Yyxn5Xrf6-16" value="" style="endArrow=classic;html=1;rounded=0;fontSize=12;startSize=8;endSize=8;curved=1;" edge="1" parent="WIyWlLk6GJQsqaUBKTNV-1">
          <mxGeometry width="50" height="50" relative="1" as="geometry">
            <mxPoint x="960" y="2560" as="sourcePoint" />
            <mxPoint x="1010" y="2560" as="targetPoint" />
          </mxGeometry>
        </mxCell>
        <mxCell id="V0uCJIoHsD2Yyxn5Xrf6-18" value="" style="endArrow=classic;html=1;rounded=0;fontSize=12;startSize=8;endSize=8;curved=1;exitX=0.501;exitY=1.14;exitDx=0;exitDy=0;exitPerimeter=0;entryX=0.5;entryY=0;entryDx=0;entryDy=0;entryPerimeter=0;" edge="1" parent="WIyWlLk6GJQsqaUBKTNV-1" source="PzG2n6Dxidd_WywgWjzG-96" target="PzG2n6Dxidd_WywgWjzG-106">
          <mxGeometry width="50" height="50" relative="1" as="geometry">
            <mxPoint x="-19.99999999999983" y="2320.002" as="sourcePoint" />
            <mxPoint x="229.44" y="2364.99" as="targetPoint" />
          </mxGeometry>
        </mxCell>
        <mxCell id="V0uCJIoHsD2Yyxn5Xrf6-19" value="" style="edgeStyle=segmentEdgeStyle;endArrow=classic;html=1;curved=0;rounded=0;endSize=8;startSize=8;fontSize=12;" edge="1" parent="WIyWlLk6GJQsqaUBKTNV-1">
          <mxGeometry width="50" height="50" relative="1" as="geometry">
            <mxPoint x="1170" y="2600" as="sourcePoint" />
            <mxPoint x="720" y="300" as="targetPoint" />
            <Array as="points">
              <mxPoint x="1230" y="2600" />
              <mxPoint x="1230" y="300" />
              <mxPoint x="730" y="300" />
            </Array>
          </mxGeometry>
        </mxCell>
        <mxCell id="V0uCJIoHsD2Yyxn5Xrf6-21" value="End" style="strokeWidth=2;html=1;shape=mxgraph.flowchart.terminator;whiteSpace=wrap;" vertex="1" parent="WIyWlLk6GJQsqaUBKTNV-1">
          <mxGeometry x="200" y="3050" width="130" height="80" as="geometry" />
        </mxCell>
        <mxCell id="V0uCJIoHsD2Yyxn5Xrf6-22" value="" style="edgeStyle=elbowEdgeStyle;elbow=horizontal;endArrow=classic;html=1;curved=0;rounded=0;endSize=8;startSize=8;fontSize=12;exitX=1;exitY=0.5;exitDx=0;exitDy=0;entryX=1;entryY=0.5;entryDx=0;entryDy=0;entryPerimeter=0;" edge="1" parent="WIyWlLk6GJQsqaUBKTNV-1" source="PzG2n6Dxidd_WywgWjzG-25" target="V0uCJIoHsD2Yyxn5Xrf6-21">
          <mxGeometry width="50" height="50" relative="1" as="geometry">
            <mxPoint x="950" y="810" as="sourcePoint" />
            <mxPoint x="390" y="1170" as="targetPoint" />
            <Array as="points">
              <mxPoint x="1320" y="1900" />
            </Array>
          </mxGeometry>
        </mxCell>
        <mxCell id="V0uCJIoHsD2Yyxn5Xrf6-23" value="" style="edgeStyle=elbowEdgeStyle;elbow=horizontal;endArrow=classic;html=1;curved=0;rounded=0;endSize=8;startSize=8;fontSize=12;exitX=0;exitY=0.5;exitDx=0;exitDy=0;entryX=0;entryY=0.5;entryDx=0;entryDy=0;entryPerimeter=0;" edge="1" parent="WIyWlLk6GJQsqaUBKTNV-1" source="PzG2n6Dxidd_WywgWjzG-59" target="V0uCJIoHsD2Yyxn5Xrf6-21">
          <mxGeometry width="50" height="50" relative="1" as="geometry">
            <mxPoint x="-510" y="2150" as="sourcePoint" />
            <mxPoint x="-350" y="3100" as="targetPoint" />
            <Array as="points">
              <mxPoint x="-760" y="2460" />
            </Array>
          </mxGeometry>
        </mxCell>
        <mxCell id="V0uCJIoHsD2Yyxn5Xrf6-24" value="" style="endArrow=classic;html=1;rounded=0;fontSize=12;startSize=8;endSize=8;curved=1;entryX=0;entryY=0;entryDx=0;entryDy=0;" edge="1" parent="WIyWlLk6GJQsqaUBKTNV-1" target="PzG2n6Dxidd_WywgWjzG-111">
          <mxGeometry width="50" height="50" relative="1" as="geometry">
            <mxPoint x="-670" y="2520" as="sourcePoint" />
            <mxPoint x="-530" y="2490" as="targetPoint" />
          </mxGeometry>
        </mxCell>
        <mxCell id="V0uCJIoHsD2Yyxn5Xrf6-26" value="" style="endArrow=classic;html=1;rounded=0;fontSize=12;startSize=8;endSize=8;curved=1;entryX=0;entryY=0;entryDx=0;entryDy=0;" edge="1" parent="WIyWlLk6GJQsqaUBKTNV-1" target="PzG2n6Dxidd_WywgWjzG-112">
          <mxGeometry width="50" height="50" relative="1" as="geometry">
            <mxPoint x="-670" y="2640" as="sourcePoint" />
            <mxPoint x="-530" y="2490" as="targetPoint" />
          </mxGeometry>
        </mxCell>
        <mxCell id="V0uCJIoHsD2Yyxn5Xrf6-27" value="" style="endArrow=classic;html=1;rounded=0;fontSize=12;startSize=8;endSize=8;curved=1;entryX=0;entryY=0;entryDx=0;entryDy=0;" edge="1" parent="WIyWlLk6GJQsqaUBKTNV-1" target="PzG2n6Dxidd_WywgWjzG-108">
          <mxGeometry width="50" height="50" relative="1" as="geometry">
            <mxPoint x="-440" y="2520" as="sourcePoint" />
            <mxPoint x="-300" y="2590" as="targetPoint" />
          </mxGeometry>
        </mxCell>
        <mxCell id="V0uCJIoHsD2Yyxn5Xrf6-28" value="" style="endArrow=classic;html=1;rounded=0;fontSize=12;startSize=8;endSize=8;curved=1;exitX=1;exitY=1;exitDx=0;exitDy=0;" edge="1" parent="WIyWlLk6GJQsqaUBKTNV-1" source="PzG2n6Dxidd_WywgWjzG-114">
          <mxGeometry width="50" height="50" relative="1" as="geometry">
            <mxPoint x="-350" y="2640" as="sourcePoint" />
            <mxPoint x="-200" y="2720" as="targetPoint" />
          </mxGeometry>
        </mxCell>
        <mxCell id="V0uCJIoHsD2Yyxn5Xrf6-29" value="" style="endArrow=classic;html=1;rounded=0;fontSize=12;startSize=8;endSize=8;curved=1;entryX=0;entryY=0;entryDx=0;entryDy=0;" edge="1" parent="WIyWlLk6GJQsqaUBKTNV-1" target="PzG2n6Dxidd_WywgWjzG-107">
          <mxGeometry width="50" height="50" relative="1" as="geometry">
            <mxPoint x="-200" y="2520" as="sourcePoint" />
            <mxPoint x="20" y="2590" as="targetPoint" />
          </mxGeometry>
        </mxCell>
        <mxCell id="V0uCJIoHsD2Yyxn5Xrf6-31" value="" style="endArrow=classic;html=1;rounded=0;fontSize=12;startSize=8;endSize=8;curved=1;entryX=0;entryY=0;entryDx=0;entryDy=0;" edge="1" parent="WIyWlLk6GJQsqaUBKTNV-1" target="PzG2n6Dxidd_WywgWjzG-110">
          <mxGeometry width="50" height="50" relative="1" as="geometry">
            <mxPoint x="40" y="2520" as="sourcePoint" />
            <mxPoint x="20" y="2590" as="targetPoint" />
          </mxGeometry>
        </mxCell>
        <mxCell id="V0uCJIoHsD2Yyxn5Xrf6-32" value="" style="endArrow=classic;html=1;rounded=0;fontSize=12;startSize=8;endSize=8;curved=1;" edge="1" parent="WIyWlLk6GJQsqaUBKTNV-1">
          <mxGeometry width="50" height="50" relative="1" as="geometry">
            <mxPoint x="970" y="2310" as="sourcePoint" />
            <mxPoint x="1030" y="2310" as="targetPoint" />
          </mxGeometry>
        </mxCell>
        <mxCell id="V0uCJIoHsD2Yyxn5Xrf6-33" value="" style="endArrow=classic;html=1;rounded=0;fontSize=12;startSize=8;endSize=8;curved=1;entryX=0.045;entryY=-0.005;entryDx=0;entryDy=0;entryPerimeter=0;" edge="1" parent="WIyWlLk6GJQsqaUBKTNV-1" target="PzG2n6Dxidd_WywgWjzG-109">
          <mxGeometry width="50" height="50" relative="1" as="geometry">
            <mxPoint x="280" y="2520" as="sourcePoint" />
            <mxPoint x="350" y="2490" as="targetPoint" />
          </mxGeometry>
        </mxCell>
        <mxCell id="V0uCJIoHsD2Yyxn5Xrf6-34" value="" style="endArrow=classic;html=1;rounded=0;fontSize=12;startSize=8;endSize=8;curved=1;" edge="1" parent="WIyWlLk6GJQsqaUBKTNV-1">
          <mxGeometry width="50" height="50" relative="1" as="geometry">
            <mxPoint x="-200" y="2640" as="sourcePoint" />
            <mxPoint x="-160" y="2640" as="targetPoint" />
          </mxGeometry>
        </mxCell>
        <mxCell id="V0uCJIoHsD2Yyxn5Xrf6-35" value="" style="endArrow=classic;html=1;rounded=0;fontSize=12;startSize=8;endSize=8;curved=1;entryX=0;entryY=0;entryDx=0;entryDy=0;" edge="1" parent="WIyWlLk6GJQsqaUBKTNV-1" target="PzG2n6Dxidd_WywgWjzG-116">
          <mxGeometry width="50" height="50" relative="1" as="geometry">
            <mxPoint x="40" y="2640" as="sourcePoint" />
            <mxPoint x="-90" y="2490" as="targetPoint" />
          </mxGeometry>
        </mxCell>
        <mxCell id="V0uCJIoHsD2Yyxn5Xrf6-37" value="" style="edgeStyle=segmentEdgeStyle;endArrow=classic;html=1;curved=0;rounded=0;endSize=8;startSize=8;fontSize=12;exitX=1;exitY=0.5;exitDx=0;exitDy=0;" edge="1" parent="WIyWlLk6GJQsqaUBKTNV-1" source="PzG2n6Dxidd_WywgWjzG-109">
          <mxGeometry width="50" height="50" relative="1" as="geometry">
            <mxPoint x="490" y="2560" as="sourcePoint" />
            <mxPoint x="760" y="1620" as="targetPoint" />
            <Array as="points">
              <mxPoint x="540" y="2560" />
              <mxPoint x="540" y="1870" />
              <mxPoint x="760" y="1870" />
            </Array>
          </mxGeometry>
        </mxCell>
      </root>
    </mxGraphModel>
  </diagram>
</mxfile>
